<mxfile host="app.diagrams.net" modified="2024-02-06T14:12:35.103Z" agent="Mozilla/5.0 (Windows NT 10.0; Win64; x64) AppleWebKit/537.36 (KHTML, like Gecko) Chrome/121.0.0.0 Safari/537.36" etag="wUlGQB_vAa4rVHoPlej6" version="23.1.1" type="device">
  <diagram name="Página-1" id="2gngTLT3UNwW4qws8ZL8">
    <mxGraphModel dx="1793" dy="933" grid="1" gridSize="10" guides="1" tooltips="1" connect="1" arrows="1" fold="1" page="1" pageScale="1" pageWidth="827" pageHeight="1169" math="0" shadow="0">
      <root>
        <mxCell id="0" />
        <mxCell id="1" parent="0" />
        <mxCell id="c132NuHwo5M8e_iF8PjM-1" value="Clientes" style="rounded=0;whiteSpace=wrap;html=1;" vertex="1" parent="1">
          <mxGeometry x="160" y="80" width="100" height="60" as="geometry" />
        </mxCell>
        <mxCell id="c132NuHwo5M8e_iF8PjM-2" value="CPF" style="ellipse;whiteSpace=wrap;html=1;" vertex="1" parent="1">
          <mxGeometry x="40" y="312" width="80" height="50" as="geometry" />
        </mxCell>
        <mxCell id="c132NuHwo5M8e_iF8PjM-5" value="&lt;u&gt;ID&lt;/u&gt;" style="ellipse;whiteSpace=wrap;html=1;" vertex="1" parent="1">
          <mxGeometry y="231" width="80" height="60" as="geometry" />
        </mxCell>
        <mxCell id="c132NuHwo5M8e_iF8PjM-7" value="CNPJ" style="ellipse;whiteSpace=wrap;html=1;" vertex="1" parent="1">
          <mxGeometry x="100" y="370" width="80" height="50" as="geometry" />
        </mxCell>
        <mxCell id="c132NuHwo5M8e_iF8PjM-9" value="Nome" style="ellipse;whiteSpace=wrap;html=1;" vertex="1" parent="1">
          <mxGeometry x="170" y="440" width="80" height="40" as="geometry" />
        </mxCell>
        <mxCell id="c132NuHwo5M8e_iF8PjM-13" value="Endereço" style="ellipse;whiteSpace=wrap;html=1;" vertex="1" parent="1">
          <mxGeometry x="360" y="312" width="80" height="50" as="geometry" />
        </mxCell>
        <mxCell id="c132NuHwo5M8e_iF8PjM-15" value="CEP" style="ellipse;whiteSpace=wrap;html=1;" vertex="1" parent="1">
          <mxGeometry x="430" y="460" width="80" height="50" as="geometry" />
        </mxCell>
        <mxCell id="c132NuHwo5M8e_iF8PjM-19" value="Número" style="ellipse;whiteSpace=wrap;html=1;" vertex="1" parent="1">
          <mxGeometry x="360" y="510" width="80" height="50" as="geometry" />
        </mxCell>
        <mxCell id="c132NuHwo5M8e_iF8PjM-22" value="Complemento&lt;br&gt;" style="ellipse;whiteSpace=wrap;html=1;" vertex="1" parent="1">
          <mxGeometry x="290" y="470" width="80" height="50" as="geometry" />
        </mxCell>
        <mxCell id="c132NuHwo5M8e_iF8PjM-47" value="Movimentações" style="rounded=0;whiteSpace=wrap;html=1;" vertex="1" parent="1">
          <mxGeometry x="640" y="80" width="100" height="60" as="geometry" />
        </mxCell>
        <mxCell id="c132NuHwo5M8e_iF8PjM-48" value="Possui" style="rhombus;whiteSpace=wrap;html=1;" vertex="1" parent="1">
          <mxGeometry x="440" y="90" width="80" height="40" as="geometry" />
        </mxCell>
        <mxCell id="c132NuHwo5M8e_iF8PjM-49" value="" style="endArrow=none;html=1;rounded=0;entryX=0;entryY=0.5;entryDx=0;entryDy=0;exitX=1;exitY=0.5;exitDx=0;exitDy=0;" edge="1" parent="1" source="c132NuHwo5M8e_iF8PjM-1" target="c132NuHwo5M8e_iF8PjM-48">
          <mxGeometry width="50" height="50" relative="1" as="geometry">
            <mxPoint x="530" y="380" as="sourcePoint" />
            <mxPoint x="500" y="110" as="targetPoint" />
          </mxGeometry>
        </mxCell>
        <mxCell id="c132NuHwo5M8e_iF8PjM-200" value="1" style="edgeLabel;html=1;align=center;verticalAlign=middle;resizable=0;points=[];fontSize=20;" vertex="1" connectable="0" parent="c132NuHwo5M8e_iF8PjM-49">
          <mxGeometry x="-0.8258" y="4" relative="1" as="geometry">
            <mxPoint x="-6" y="-11" as="offset" />
          </mxGeometry>
        </mxCell>
        <mxCell id="c132NuHwo5M8e_iF8PjM-51" value="" style="endArrow=none;html=1;rounded=0;entryX=0;entryY=0.5;entryDx=0;entryDy=0;exitX=1;exitY=0.5;exitDx=0;exitDy=0;" edge="1" parent="1" source="c132NuHwo5M8e_iF8PjM-48" target="c132NuHwo5M8e_iF8PjM-47">
          <mxGeometry width="50" height="50" relative="1" as="geometry">
            <mxPoint x="650" y="109.5" as="sourcePoint" />
            <mxPoint x="850" y="109.5" as="targetPoint" />
          </mxGeometry>
        </mxCell>
        <mxCell id="c132NuHwo5M8e_iF8PjM-201" value="N" style="edgeLabel;html=1;align=center;verticalAlign=middle;resizable=0;points=[];fontSize=20;" vertex="1" connectable="0" parent="c132NuHwo5M8e_iF8PjM-51">
          <mxGeometry x="-0.5643" y="-4" relative="1" as="geometry">
            <mxPoint x="81" y="-19" as="offset" />
          </mxGeometry>
        </mxCell>
        <mxCell id="c132NuHwo5M8e_iF8PjM-54" value="Peso" style="ellipse;whiteSpace=wrap;html=1;fontStyle=0" vertex="1" parent="1">
          <mxGeometry x="880" y="680" width="80" height="50" as="geometry" />
        </mxCell>
        <mxCell id="c132NuHwo5M8e_iF8PjM-55" value="Tipo de carga" style="ellipse;whiteSpace=wrap;html=1;fontStyle=0" vertex="1" parent="1">
          <mxGeometry x="680" y="570" width="80" height="50" as="geometry" />
        </mxCell>
        <mxCell id="c132NuHwo5M8e_iF8PjM-56" value="Dimensão" style="ellipse;whiteSpace=wrap;html=1;fontStyle=0" vertex="1" parent="1">
          <mxGeometry x="710" y="637.5" width="80" height="50" as="geometry" />
        </mxCell>
        <mxCell id="c132NuHwo5M8e_iF8PjM-57" value="Quantidade" style="ellipse;whiteSpace=wrap;html=1;fontStyle=0" vertex="1" parent="1">
          <mxGeometry x="790" y="680" width="80" height="50" as="geometry" />
        </mxCell>
        <mxCell id="c132NuHwo5M8e_iF8PjM-58" value="Origem" style="ellipse;whiteSpace=wrap;html=1;fontStyle=0" vertex="1" parent="1">
          <mxGeometry x="650" y="280" width="80" height="50" as="geometry" />
        </mxCell>
        <mxCell id="c132NuHwo5M8e_iF8PjM-60" value="valor_frete" style="ellipse;whiteSpace=wrap;html=1;fontStyle=0" vertex="1" parent="1">
          <mxGeometry x="1000" y="560" width="80" height="60" as="geometry" />
        </mxCell>
        <mxCell id="c132NuHwo5M8e_iF8PjM-110" value="" style="endArrow=none;html=1;rounded=0;entryX=0.5;entryY=1;entryDx=0;entryDy=0;exitX=0.5;exitY=0;exitDx=0;exitDy=0;" edge="1" parent="1" source="c132NuHwo5M8e_iF8PjM-165" target="c132NuHwo5M8e_iF8PjM-47">
          <mxGeometry width="50" height="50" relative="1" as="geometry">
            <mxPoint x="480" y="210" as="sourcePoint" />
            <mxPoint x="480" y="340" as="targetPoint" />
          </mxGeometry>
        </mxCell>
        <mxCell id="c132NuHwo5M8e_iF8PjM-111" value="" style="endArrow=none;html=1;rounded=0;entryX=0.5;entryY=1;entryDx=0;entryDy=0;exitX=0.5;exitY=0;exitDx=0;exitDy=0;" edge="1" parent="1" source="c132NuHwo5M8e_iF8PjM-54" target="c132NuHwo5M8e_iF8PjM-166">
          <mxGeometry width="50" height="50" relative="1" as="geometry">
            <mxPoint x="490" y="220" as="sourcePoint" />
            <mxPoint x="730" y="150" as="targetPoint" />
          </mxGeometry>
        </mxCell>
        <mxCell id="c132NuHwo5M8e_iF8PjM-112" value="" style="endArrow=none;html=1;rounded=0;exitX=0.5;exitY=0;exitDx=0;exitDy=0;entryX=0.5;entryY=1;entryDx=0;entryDy=0;" edge="1" parent="1" source="c132NuHwo5M8e_iF8PjM-55" target="c132NuHwo5M8e_iF8PjM-166">
          <mxGeometry width="50" height="50" relative="1" as="geometry">
            <mxPoint x="500" y="230" as="sourcePoint" />
            <mxPoint x="720" y="160" as="targetPoint" />
          </mxGeometry>
        </mxCell>
        <mxCell id="c132NuHwo5M8e_iF8PjM-113" value="" style="endArrow=none;html=1;rounded=0;exitX=0.5;exitY=0;exitDx=0;exitDy=0;entryX=0.5;entryY=1;entryDx=0;entryDy=0;" edge="1" parent="1" source="c132NuHwo5M8e_iF8PjM-56" target="c132NuHwo5M8e_iF8PjM-166">
          <mxGeometry width="50" height="50" relative="1" as="geometry">
            <mxPoint x="510" y="240" as="sourcePoint" />
            <mxPoint x="820" y="440" as="targetPoint" />
          </mxGeometry>
        </mxCell>
        <mxCell id="c132NuHwo5M8e_iF8PjM-114" value="" style="endArrow=none;html=1;rounded=0;entryX=0.5;entryY=1;entryDx=0;entryDy=0;exitX=0.5;exitY=0;exitDx=0;exitDy=0;" edge="1" parent="1" source="c132NuHwo5M8e_iF8PjM-57" target="c132NuHwo5M8e_iF8PjM-166">
          <mxGeometry width="50" height="50" relative="1" as="geometry">
            <mxPoint x="520" y="250" as="sourcePoint" />
            <mxPoint x="760" y="180" as="targetPoint" />
          </mxGeometry>
        </mxCell>
        <mxCell id="c132NuHwo5M8e_iF8PjM-115" value="" style="endArrow=none;html=1;rounded=0;entryX=0.5;entryY=1;entryDx=0;entryDy=0;exitX=0.5;exitY=0;exitDx=0;exitDy=0;" edge="1" parent="1" source="c132NuHwo5M8e_iF8PjM-58" target="c132NuHwo5M8e_iF8PjM-47">
          <mxGeometry width="50" height="50" relative="1" as="geometry">
            <mxPoint x="530" y="260" as="sourcePoint" />
            <mxPoint x="770" y="190" as="targetPoint" />
          </mxGeometry>
        </mxCell>
        <mxCell id="c132NuHwo5M8e_iF8PjM-116" value="" style="endArrow=none;html=1;rounded=0;entryX=0.5;entryY=1;entryDx=0;entryDy=0;exitX=0.5;exitY=0;exitDx=0;exitDy=0;" edge="1" parent="1" source="c132NuHwo5M8e_iF8PjM-166" target="c132NuHwo5M8e_iF8PjM-47">
          <mxGeometry width="50" height="50" relative="1" as="geometry">
            <mxPoint x="740" y="370" as="sourcePoint" />
            <mxPoint x="780" y="200" as="targetPoint" />
          </mxGeometry>
        </mxCell>
        <mxCell id="c132NuHwo5M8e_iF8PjM-119" value="" style="endArrow=none;html=1;rounded=0;entryX=0.5;entryY=1;entryDx=0;entryDy=0;exitX=0.5;exitY=0;exitDx=0;exitDy=0;" edge="1" parent="1" source="c132NuHwo5M8e_iF8PjM-60" target="c132NuHwo5M8e_iF8PjM-166">
          <mxGeometry width="50" height="50" relative="1" as="geometry">
            <mxPoint x="570" y="300" as="sourcePoint" />
            <mxPoint x="810" y="230" as="targetPoint" />
          </mxGeometry>
        </mxCell>
        <mxCell id="c132NuHwo5M8e_iF8PjM-135" value="CEP" style="ellipse;whiteSpace=wrap;html=1;fontStyle=0" vertex="1" parent="1">
          <mxGeometry x="580" y="370" width="80" height="50" as="geometry" />
        </mxCell>
        <mxCell id="c132NuHwo5M8e_iF8PjM-136" value="Número" style="ellipse;whiteSpace=wrap;html=1;fontStyle=0" vertex="1" parent="1">
          <mxGeometry x="650" y="420" width="80" height="50" as="geometry" />
        </mxCell>
        <mxCell id="c132NuHwo5M8e_iF8PjM-137" value="Complemento" style="ellipse;whiteSpace=wrap;html=1;fontStyle=0" vertex="1" parent="1">
          <mxGeometry x="720" y="370" width="80" height="50" as="geometry" />
        </mxCell>
        <mxCell id="c132NuHwo5M8e_iF8PjM-138" value="CEP" style="ellipse;whiteSpace=wrap;html=1;fontStyle=0" vertex="1" parent="1">
          <mxGeometry x="1165" y="672.5" width="80" height="50" as="geometry" />
        </mxCell>
        <mxCell id="c132NuHwo5M8e_iF8PjM-139" value="Número" style="ellipse;whiteSpace=wrap;html=1;fontStyle=0" vertex="1" parent="1">
          <mxGeometry x="1255" y="672.5" width="80" height="50" as="geometry" />
        </mxCell>
        <mxCell id="c132NuHwo5M8e_iF8PjM-140" value="Complemento" style="ellipse;whiteSpace=wrap;html=1;fontStyle=0" vertex="1" parent="1">
          <mxGeometry x="1305" y="602.5" width="80" height="50" as="geometry" />
        </mxCell>
        <mxCell id="c132NuHwo5M8e_iF8PjM-141" value="" style="endArrow=none;html=1;rounded=0;entryX=0.5;entryY=1;entryDx=0;entryDy=0;exitX=0.5;exitY=0;exitDx=0;exitDy=0;" edge="1" parent="1" source="c132NuHwo5M8e_iF8PjM-135" target="c132NuHwo5M8e_iF8PjM-58">
          <mxGeometry width="50" height="50" relative="1" as="geometry">
            <mxPoint x="300" y="595" as="sourcePoint" />
            <mxPoint x="350" y="545" as="targetPoint" />
          </mxGeometry>
        </mxCell>
        <mxCell id="c132NuHwo5M8e_iF8PjM-142" value="" style="endArrow=none;html=1;rounded=0;entryX=0.5;entryY=1;entryDx=0;entryDy=0;exitX=0.5;exitY=0;exitDx=0;exitDy=0;" edge="1" parent="1" source="c132NuHwo5M8e_iF8PjM-136" target="c132NuHwo5M8e_iF8PjM-58">
          <mxGeometry width="50" height="50" relative="1" as="geometry">
            <mxPoint x="310" y="605" as="sourcePoint" />
            <mxPoint x="360" y="555" as="targetPoint" />
          </mxGeometry>
        </mxCell>
        <mxCell id="c132NuHwo5M8e_iF8PjM-143" value="" style="endArrow=none;html=1;rounded=0;entryX=0.5;entryY=1;entryDx=0;entryDy=0;exitX=0.5;exitY=0;exitDx=0;exitDy=0;" edge="1" parent="1" source="c132NuHwo5M8e_iF8PjM-137" target="c132NuHwo5M8e_iF8PjM-58">
          <mxGeometry width="50" height="50" relative="1" as="geometry">
            <mxPoint x="320" y="615" as="sourcePoint" />
            <mxPoint x="370" y="565" as="targetPoint" />
          </mxGeometry>
        </mxCell>
        <mxCell id="c132NuHwo5M8e_iF8PjM-144" value="" style="endArrow=none;html=1;rounded=0;exitX=0.5;exitY=0;exitDx=0;exitDy=0;entryX=0.5;entryY=1;entryDx=0;entryDy=0;" edge="1" parent="1" source="c132NuHwo5M8e_iF8PjM-138" target="c132NuHwo5M8e_iF8PjM-167">
          <mxGeometry width="50" height="50" relative="1" as="geometry">
            <mxPoint x="440" y="580" as="sourcePoint" />
            <mxPoint x="1170" y="540" as="targetPoint" />
          </mxGeometry>
        </mxCell>
        <mxCell id="c132NuHwo5M8e_iF8PjM-145" value="" style="endArrow=none;html=1;rounded=0;entryX=0.5;entryY=1;entryDx=0;entryDy=0;exitX=0.5;exitY=0;exitDx=0;exitDy=0;" edge="1" parent="1" source="c132NuHwo5M8e_iF8PjM-139" target="c132NuHwo5M8e_iF8PjM-167">
          <mxGeometry width="50" height="50" relative="1" as="geometry">
            <mxPoint x="450" y="590" as="sourcePoint" />
            <mxPoint x="779.9999999999859" y="435" as="targetPoint" />
          </mxGeometry>
        </mxCell>
        <mxCell id="c132NuHwo5M8e_iF8PjM-146" value="" style="endArrow=none;html=1;rounded=0;entryX=0.5;entryY=1;entryDx=0;entryDy=0;exitX=0.5;exitY=0;exitDx=0;exitDy=0;" edge="1" parent="1" source="c132NuHwo5M8e_iF8PjM-140" target="c132NuHwo5M8e_iF8PjM-167">
          <mxGeometry width="50" height="50" relative="1" as="geometry">
            <mxPoint x="460" y="600" as="sourcePoint" />
            <mxPoint x="779.9999999999859" y="435" as="targetPoint" />
          </mxGeometry>
        </mxCell>
        <mxCell id="c132NuHwo5M8e_iF8PjM-148" value="" style="endArrow=none;html=1;rounded=0;entryX=0.5;entryY=1;entryDx=0;entryDy=0;exitX=0.5;exitY=0;exitDx=0;exitDy=0;" edge="1" parent="1" source="c132NuHwo5M8e_iF8PjM-5" target="c132NuHwo5M8e_iF8PjM-1">
          <mxGeometry width="50" height="50" relative="1" as="geometry">
            <mxPoint x="-30" y="270" as="sourcePoint" />
            <mxPoint x="-80" y="480" as="targetPoint" />
          </mxGeometry>
        </mxCell>
        <mxCell id="c132NuHwo5M8e_iF8PjM-149" value="" style="endArrow=none;html=1;rounded=0;entryX=0.5;entryY=1;entryDx=0;entryDy=0;exitX=0.5;exitY=0;exitDx=0;exitDy=0;" edge="1" parent="1" source="c132NuHwo5M8e_iF8PjM-2" target="c132NuHwo5M8e_iF8PjM-1">
          <mxGeometry width="50" height="50" relative="1" as="geometry">
            <mxPoint x="-120" y="540" as="sourcePoint" />
            <mxPoint x="-70" y="490" as="targetPoint" />
          </mxGeometry>
        </mxCell>
        <mxCell id="c132NuHwo5M8e_iF8PjM-150" value="" style="endArrow=none;html=1;rounded=0;entryX=0.5;entryY=1;entryDx=0;entryDy=0;exitX=0.5;exitY=0;exitDx=0;exitDy=0;" edge="1" parent="1" source="c132NuHwo5M8e_iF8PjM-7" target="c132NuHwo5M8e_iF8PjM-1">
          <mxGeometry width="50" height="50" relative="1" as="geometry">
            <mxPoint x="-110" y="550" as="sourcePoint" />
            <mxPoint x="-60" y="500" as="targetPoint" />
          </mxGeometry>
        </mxCell>
        <mxCell id="c132NuHwo5M8e_iF8PjM-151" value="" style="endArrow=none;html=1;rounded=0;entryX=0.5;entryY=1;entryDx=0;entryDy=0;exitX=0.5;exitY=0;exitDx=0;exitDy=0;" edge="1" parent="1" source="c132NuHwo5M8e_iF8PjM-9" target="c132NuHwo5M8e_iF8PjM-1">
          <mxGeometry width="50" height="50" relative="1" as="geometry">
            <mxPoint x="-100" y="560" as="sourcePoint" />
            <mxPoint x="-50" y="510" as="targetPoint" />
          </mxGeometry>
        </mxCell>
        <mxCell id="c132NuHwo5M8e_iF8PjM-152" value="" style="endArrow=none;html=1;rounded=0;entryX=0.5;entryY=1;entryDx=0;entryDy=0;exitX=0.5;exitY=0;exitDx=0;exitDy=0;" edge="1" parent="1" target="c132NuHwo5M8e_iF8PjM-1">
          <mxGeometry width="50" height="50" relative="1" as="geometry">
            <mxPoint x="300" y="420" as="sourcePoint" />
            <mxPoint x="-40" y="520" as="targetPoint" />
          </mxGeometry>
        </mxCell>
        <mxCell id="c132NuHwo5M8e_iF8PjM-153" value="" style="endArrow=none;html=1;rounded=0;entryX=0.5;entryY=1;entryDx=0;entryDy=0;exitX=0.5;exitY=0;exitDx=0;exitDy=0;" edge="1" parent="1" source="c132NuHwo5M8e_iF8PjM-13" target="c132NuHwo5M8e_iF8PjM-1">
          <mxGeometry width="50" height="50" relative="1" as="geometry">
            <mxPoint x="-80" y="580" as="sourcePoint" />
            <mxPoint x="-30" y="530" as="targetPoint" />
          </mxGeometry>
        </mxCell>
        <mxCell id="c132NuHwo5M8e_iF8PjM-154" value="" style="endArrow=none;html=1;rounded=0;entryX=0.5;entryY=1;entryDx=0;entryDy=0;exitX=0.426;exitY=0.033;exitDx=0;exitDy=0;exitPerimeter=0;" edge="1" parent="1" source="c132NuHwo5M8e_iF8PjM-163" target="c132NuHwo5M8e_iF8PjM-1">
          <mxGeometry width="50" height="50" relative="1" as="geometry">
            <mxPoint x="450" y="275" as="sourcePoint" />
            <mxPoint x="-20" y="540" as="targetPoint" />
          </mxGeometry>
        </mxCell>
        <mxCell id="c132NuHwo5M8e_iF8PjM-155" value="Razão Social" style="ellipse;whiteSpace=wrap;html=1;" vertex="1" parent="1">
          <mxGeometry x="250" y="370" width="80" height="50" as="geometry" />
        </mxCell>
        <mxCell id="c132NuHwo5M8e_iF8PjM-156" value="" style="endArrow=none;html=1;rounded=0;entryX=0.5;entryY=1;entryDx=0;entryDy=0;exitX=0.5;exitY=0;exitDx=0;exitDy=0;" edge="1" parent="1" source="c132NuHwo5M8e_iF8PjM-15" target="c132NuHwo5M8e_iF8PjM-13">
          <mxGeometry width="50" height="50" relative="1" as="geometry">
            <mxPoint x="500" y="412" as="sourcePoint" />
            <mxPoint x="20" y="540" as="targetPoint" />
          </mxGeometry>
        </mxCell>
        <mxCell id="c132NuHwo5M8e_iF8PjM-157" value="" style="endArrow=none;html=1;rounded=0;entryX=0.5;entryY=1;entryDx=0;entryDy=0;exitX=0.5;exitY=0;exitDx=0;exitDy=0;" edge="1" parent="1" source="c132NuHwo5M8e_iF8PjM-19" target="c132NuHwo5M8e_iF8PjM-13">
          <mxGeometry width="50" height="50" relative="1" as="geometry">
            <mxPoint x="-20" y="600" as="sourcePoint" />
            <mxPoint x="30" y="550" as="targetPoint" />
          </mxGeometry>
        </mxCell>
        <mxCell id="c132NuHwo5M8e_iF8PjM-158" value="" style="endArrow=none;html=1;rounded=0;entryX=0.5;entryY=1;entryDx=0;entryDy=0;exitX=0.5;exitY=0;exitDx=0;exitDy=0;" edge="1" parent="1" source="c132NuHwo5M8e_iF8PjM-22" target="c132NuHwo5M8e_iF8PjM-13">
          <mxGeometry width="50" height="50" relative="1" as="geometry">
            <mxPoint x="-10" y="610" as="sourcePoint" />
            <mxPoint x="40" y="560" as="targetPoint" />
          </mxGeometry>
        </mxCell>
        <mxCell id="c132NuHwo5M8e_iF8PjM-161" value="ID" style="ellipse;whiteSpace=wrap;html=1;fontStyle=4" vertex="1" parent="1">
          <mxGeometry x="520" y="195" width="80" height="30" as="geometry" />
        </mxCell>
        <mxCell id="c132NuHwo5M8e_iF8PjM-162" value="" style="endArrow=none;html=1;rounded=0;entryX=0.5;entryY=1;entryDx=0;entryDy=0;exitX=0.5;exitY=0;exitDx=0;exitDy=0;" edge="1" parent="1" source="c132NuHwo5M8e_iF8PjM-161" target="c132NuHwo5M8e_iF8PjM-47">
          <mxGeometry width="50" height="50" relative="1" as="geometry">
            <mxPoint x="490" y="220" as="sourcePoint" />
            <mxPoint x="700" y="150" as="targetPoint" />
          </mxGeometry>
        </mxCell>
        <mxCell id="c132NuHwo5M8e_iF8PjM-163" value="Contatos" style="ellipse;shape=doubleEllipse;margin=3;whiteSpace=wrap;html=1;align=center;" vertex="1" parent="1">
          <mxGeometry x="414" y="232" width="80" height="59" as="geometry" />
        </mxCell>
        <mxCell id="c132NuHwo5M8e_iF8PjM-165" value="&lt;span style=&quot;border-bottom: 1px dotted&quot;&gt;Id_cliente&lt;/span&gt;" style="ellipse;whiteSpace=wrap;html=1;align=center;" vertex="1" parent="1">
          <mxGeometry x="810" y="165" width="100" height="40" as="geometry" />
        </mxCell>
        <mxCell id="c132NuHwo5M8e_iF8PjM-166" value="Fretes" style="shape=ext;margin=3;double=1;whiteSpace=wrap;html=1;align=center;" vertex="1" parent="1">
          <mxGeometry x="820" y="400" width="100" height="40" as="geometry" />
        </mxCell>
        <mxCell id="c132NuHwo5M8e_iF8PjM-182" style="rounded=0;orthogonalLoop=1;jettySize=auto;html=1;entryX=1;entryY=0.5;entryDx=0;entryDy=0;endArrow=none;endFill=0;exitX=0;exitY=0.5;exitDx=0;exitDy=0;" edge="1" parent="1" source="c132NuHwo5M8e_iF8PjM-213" target="c132NuHwo5M8e_iF8PjM-166">
          <mxGeometry relative="1" as="geometry" />
        </mxCell>
        <mxCell id="c132NuHwo5M8e_iF8PjM-167" value="Destinatarios" style="rounded=1;arcSize=10;whiteSpace=wrap;html=1;align=center;" vertex="1" parent="1">
          <mxGeometry x="1200" y="400" width="100" height="40" as="geometry" />
        </mxCell>
        <mxCell id="c132NuHwo5M8e_iF8PjM-168" style="edgeStyle=orthogonalEdgeStyle;rounded=0;orthogonalLoop=1;jettySize=auto;html=1;exitX=0.5;exitY=1;exitDx=0;exitDy=0;" edge="1" parent="1" source="c132NuHwo5M8e_iF8PjM-140" target="c132NuHwo5M8e_iF8PjM-140">
          <mxGeometry relative="1" as="geometry" />
        </mxCell>
        <mxCell id="c132NuHwo5M8e_iF8PjM-170" style="rounded=0;orthogonalLoop=1;jettySize=auto;html=1;exitX=0.5;exitY=0;exitDx=0;exitDy=0;entryX=0.5;entryY=1;entryDx=0;entryDy=0;endArrow=none;endFill=0;" edge="1" parent="1" source="c132NuHwo5M8e_iF8PjM-169" target="c132NuHwo5M8e_iF8PjM-167">
          <mxGeometry relative="1" as="geometry" />
        </mxCell>
        <mxCell id="c132NuHwo5M8e_iF8PjM-169" value="id" style="ellipse;whiteSpace=wrap;html=1;align=center;fontStyle=4;" vertex="1" parent="1">
          <mxGeometry x="1115" y="605" width="80" height="45" as="geometry" />
        </mxCell>
        <mxCell id="c132NuHwo5M8e_iF8PjM-172" style="rounded=0;orthogonalLoop=1;jettySize=auto;html=1;exitX=0.5;exitY=0;exitDx=0;exitDy=0;entryX=0.5;entryY=1;entryDx=0;entryDy=0;endArrow=none;endFill=0;" edge="1" parent="1" source="c132NuHwo5M8e_iF8PjM-171" target="c132NuHwo5M8e_iF8PjM-166">
          <mxGeometry relative="1" as="geometry" />
        </mxCell>
        <mxCell id="c132NuHwo5M8e_iF8PjM-171" value="&lt;span style=&quot;border-bottom: 1px dotted&quot;&gt;id_destinatario&lt;/span&gt;" style="ellipse;whiteSpace=wrap;html=1;align=center;" vertex="1" parent="1">
          <mxGeometry x="960" y="632.5" width="90" height="60" as="geometry" />
        </mxCell>
        <mxCell id="c132NuHwo5M8e_iF8PjM-187" style="rounded=0;orthogonalLoop=1;jettySize=auto;html=1;endArrow=none;endFill=0;entryX=0.5;entryY=0;entryDx=0;entryDy=0;exitX=0.5;exitY=1;exitDx=0;exitDy=0;" edge="1" parent="1" source="c132NuHwo5M8e_iF8PjM-174" target="c132NuHwo5M8e_iF8PjM-186">
          <mxGeometry relative="1" as="geometry">
            <mxPoint x="1430.5" y="180" as="targetPoint" />
            <mxPoint x="1420.5" y="170" as="sourcePoint" />
          </mxGeometry>
        </mxCell>
        <mxCell id="c132NuHwo5M8e_iF8PjM-195" style="rounded=0;orthogonalLoop=1;jettySize=auto;html=1;entryX=0;entryY=0.5;entryDx=0;entryDy=0;endArrow=none;endFill=0;exitX=1;exitY=0.5;exitDx=0;exitDy=0;" edge="1" parent="1" source="c132NuHwo5M8e_iF8PjM-212" target="c132NuHwo5M8e_iF8PjM-194">
          <mxGeometry relative="1" as="geometry">
            <mxPoint x="1405" y="110" as="sourcePoint" />
          </mxGeometry>
        </mxCell>
        <mxCell id="c132NuHwo5M8e_iF8PjM-174" value="Motoristas" style="rounded=0;whiteSpace=wrap;html=1;" vertex="1" parent="1">
          <mxGeometry x="1120.5" y="80" width="100" height="60" as="geometry" />
        </mxCell>
        <mxCell id="c132NuHwo5M8e_iF8PjM-176" style="rounded=0;orthogonalLoop=1;jettySize=auto;html=1;exitX=0.5;exitY=0;exitDx=0;exitDy=0;endArrow=none;endFill=0;entryX=0.5;entryY=1;entryDx=0;entryDy=0;" edge="1" parent="1" source="c132NuHwo5M8e_iF8PjM-175" target="c132NuHwo5M8e_iF8PjM-47">
          <mxGeometry relative="1" as="geometry" />
        </mxCell>
        <mxCell id="c132NuHwo5M8e_iF8PjM-175" value="&lt;span style=&quot;border-bottom: 1px dotted&quot;&gt;id_motorista&lt;/span&gt;" style="ellipse;whiteSpace=wrap;html=1;align=center;" vertex="1" parent="1">
          <mxGeometry x="780" y="215" width="100" height="40" as="geometry" />
        </mxCell>
        <mxCell id="c132NuHwo5M8e_iF8PjM-179" style="rounded=0;orthogonalLoop=1;jettySize=auto;html=1;exitX=0.5;exitY=0;exitDx=0;exitDy=0;endArrow=none;endFill=0;entryX=0.5;entryY=1;entryDx=0;entryDy=0;" edge="1" parent="1" source="c132NuHwo5M8e_iF8PjM-178" target="c132NuHwo5M8e_iF8PjM-47">
          <mxGeometry relative="1" as="geometry" />
        </mxCell>
        <mxCell id="c132NuHwo5M8e_iF8PjM-178" value="&lt;span style=&quot;border-bottom: 1px dotted&quot;&gt;placa&lt;/span&gt;" style="ellipse;whiteSpace=wrap;html=1;align=center;" vertex="1" parent="1">
          <mxGeometry x="560" y="230" width="100" height="40" as="geometry" />
        </mxCell>
        <mxCell id="c132NuHwo5M8e_iF8PjM-181" value="" style="endArrow=none;html=1;rounded=0;entryX=0;entryY=0.5;entryDx=0;entryDy=0;exitX=1;exitY=0.5;exitDx=0;exitDy=0;" edge="1" parent="1" source="c132NuHwo5M8e_iF8PjM-211" target="c132NuHwo5M8e_iF8PjM-174">
          <mxGeometry width="50" height="50" relative="1" as="geometry">
            <mxPoint x="750" y="120" as="sourcePoint" />
            <mxPoint x="1000" y="260" as="targetPoint" />
          </mxGeometry>
        </mxCell>
        <mxCell id="c132NuHwo5M8e_iF8PjM-186" value="ID" style="ellipse;whiteSpace=wrap;html=1;fontStyle=4" vertex="1" parent="1">
          <mxGeometry x="1215.5" y="196" width="70" height="48" as="geometry" />
        </mxCell>
        <mxCell id="c132NuHwo5M8e_iF8PjM-188" value="CPF" style="ellipse;whiteSpace=wrap;html=1;" vertex="1" parent="1">
          <mxGeometry x="1020.5" y="202.5" width="80" height="50" as="geometry" />
        </mxCell>
        <mxCell id="c132NuHwo5M8e_iF8PjM-189" style="rounded=0;orthogonalLoop=1;jettySize=auto;html=1;endArrow=none;endFill=0;entryX=0.5;entryY=0;entryDx=0;entryDy=0;exitX=0.5;exitY=1;exitDx=0;exitDy=0;" edge="1" parent="1" source="c132NuHwo5M8e_iF8PjM-174" target="c132NuHwo5M8e_iF8PjM-188">
          <mxGeometry relative="1" as="geometry">
            <mxPoint x="1440.5" y="190" as="targetPoint" />
            <mxPoint x="1400.5" y="160" as="sourcePoint" />
          </mxGeometry>
        </mxCell>
        <mxCell id="c132NuHwo5M8e_iF8PjM-190" value="RG" style="ellipse;whiteSpace=wrap;html=1;" vertex="1" parent="1">
          <mxGeometry x="1090.5" y="252.5" width="60" height="45" as="geometry" />
        </mxCell>
        <mxCell id="c132NuHwo5M8e_iF8PjM-191" style="rounded=0;orthogonalLoop=1;jettySize=auto;html=1;endArrow=none;endFill=0;entryX=0.5;entryY=0;entryDx=0;entryDy=0;exitX=0.5;exitY=1;exitDx=0;exitDy=0;" edge="1" parent="1" source="c132NuHwo5M8e_iF8PjM-174" target="c132NuHwo5M8e_iF8PjM-190">
          <mxGeometry relative="1" as="geometry">
            <mxPoint x="1330.5" y="185" as="targetPoint" />
            <mxPoint x="1410.5" y="170" as="sourcePoint" />
          </mxGeometry>
        </mxCell>
        <mxCell id="c132NuHwo5M8e_iF8PjM-192" value="CNH" style="ellipse;whiteSpace=wrap;html=1;" vertex="1" parent="1">
          <mxGeometry x="1175.5" y="250" width="65" height="50" as="geometry" />
        </mxCell>
        <mxCell id="c132NuHwo5M8e_iF8PjM-193" style="rounded=0;orthogonalLoop=1;jettySize=auto;html=1;endArrow=none;endFill=0;entryX=0.5;entryY=0;entryDx=0;entryDy=0;exitX=0.5;exitY=1;exitDx=0;exitDy=0;" edge="1" parent="1" source="c132NuHwo5M8e_iF8PjM-174" target="c132NuHwo5M8e_iF8PjM-192">
          <mxGeometry relative="1" as="geometry">
            <mxPoint x="1430.5" y="322" as="targetPoint" />
            <mxPoint x="1440.5" y="150" as="sourcePoint" />
          </mxGeometry>
        </mxCell>
        <mxCell id="c132NuHwo5M8e_iF8PjM-196" style="rounded=0;orthogonalLoop=1;jettySize=auto;html=1;entryX=0.5;entryY=0;entryDx=0;entryDy=0;endArrow=none;endFill=0;exitX=0.5;exitY=1;exitDx=0;exitDy=0;" edge="1" parent="1" source="c132NuHwo5M8e_iF8PjM-194" target="c132NuHwo5M8e_iF8PjM-197">
          <mxGeometry relative="1" as="geometry">
            <mxPoint x="1500" y="169" as="targetPoint" />
          </mxGeometry>
        </mxCell>
        <mxCell id="c132NuHwo5M8e_iF8PjM-194" value="Veiculos" style="rounded=0;whiteSpace=wrap;html=1;" vertex="1" parent="1">
          <mxGeometry x="1445" y="80" width="100" height="60" as="geometry" />
        </mxCell>
        <mxCell id="c132NuHwo5M8e_iF8PjM-197" value="Placa" style="ellipse;whiteSpace=wrap;html=1;fontStyle=4" vertex="1" parent="1">
          <mxGeometry x="1495" y="195" width="80" height="50" as="geometry" />
        </mxCell>
        <mxCell id="c132NuHwo5M8e_iF8PjM-198" value="cod_rastreio" style="ellipse;whiteSpace=wrap;html=1;" vertex="1" parent="1">
          <mxGeometry x="1405" y="194" width="80" height="50" as="geometry" />
        </mxCell>
        <mxCell id="c132NuHwo5M8e_iF8PjM-199" style="rounded=0;orthogonalLoop=1;jettySize=auto;html=1;entryX=0.5;entryY=0;entryDx=0;entryDy=0;endArrow=none;endFill=0;exitX=0.5;exitY=1;exitDx=0;exitDy=0;" edge="1" parent="1" source="c132NuHwo5M8e_iF8PjM-194" target="c132NuHwo5M8e_iF8PjM-198">
          <mxGeometry relative="1" as="geometry">
            <mxPoint x="1510" y="204" as="targetPoint" />
            <mxPoint x="1510" y="149" as="sourcePoint" />
          </mxGeometry>
        </mxCell>
        <mxCell id="c132NuHwo5M8e_iF8PjM-203" value="N" style="edgeLabel;html=1;align=center;verticalAlign=middle;resizable=0;points=[];fontSize=20;" vertex="1" connectable="0" parent="1">
          <mxGeometry x="752.086956521739" y="93.99999999999989" as="geometry" />
        </mxCell>
        <mxCell id="c132NuHwo5M8e_iF8PjM-204" value="1" style="edgeLabel;html=1;align=center;verticalAlign=middle;resizable=0;points=[];fontSize=20;" vertex="1" connectable="0" parent="1">
          <mxGeometry x="1102.586956521739" y="93.99999999999989" as="geometry">
            <mxPoint x="2" y="2" as="offset" />
          </mxGeometry>
        </mxCell>
        <mxCell id="c132NuHwo5M8e_iF8PjM-205" value="1" style="edgeLabel;html=1;align=center;verticalAlign=middle;resizable=0;points=[];fontSize=20;" vertex="1" connectable="0" parent="1">
          <mxGeometry x="1228.586956521739" y="93.99999999999989" as="geometry">
            <mxPoint x="2" y="2" as="offset" />
          </mxGeometry>
        </mxCell>
        <mxCell id="c132NuHwo5M8e_iF8PjM-207" value="1" style="edgeLabel;html=1;align=center;verticalAlign=middle;resizable=0;points=[];fontSize=20;" vertex="1" connectable="0" parent="1">
          <mxGeometry x="1428.086956521739" y="93.99999999999989" as="geometry">
            <mxPoint x="2" y="2" as="offset" />
          </mxGeometry>
        </mxCell>
        <mxCell id="c132NuHwo5M8e_iF8PjM-210" value="" style="rounded=0;orthogonalLoop=1;jettySize=auto;html=1;entryX=0;entryY=0.5;entryDx=0;entryDy=0;endArrow=none;endFill=0;" edge="1" parent="1" source="c132NuHwo5M8e_iF8PjM-174" target="c132NuHwo5M8e_iF8PjM-212">
          <mxGeometry relative="1" as="geometry">
            <mxPoint x="1220.5" y="110" as="sourcePoint" />
            <mxPoint x="1255.5" y="110" as="targetPoint" />
          </mxGeometry>
        </mxCell>
        <mxCell id="c132NuHwo5M8e_iF8PjM-212" value="Possui" style="rhombus;whiteSpace=wrap;html=1;" vertex="1" parent="1">
          <mxGeometry x="1285.5" y="90" width="80" height="40" as="geometry" />
        </mxCell>
        <mxCell id="c132NuHwo5M8e_iF8PjM-214" value="" style="rounded=0;orthogonalLoop=1;jettySize=auto;html=1;entryX=1;entryY=0.5;entryDx=0;entryDy=0;endArrow=none;endFill=0;exitX=0;exitY=0.5;exitDx=0;exitDy=0;" edge="1" parent="1" source="c132NuHwo5M8e_iF8PjM-167" target="c132NuHwo5M8e_iF8PjM-213">
          <mxGeometry relative="1" as="geometry">
            <mxPoint x="1200" y="420" as="sourcePoint" />
            <mxPoint x="920" y="420" as="targetPoint" />
          </mxGeometry>
        </mxCell>
        <mxCell id="c132NuHwo5M8e_iF8PjM-213" value="Possui" style="rhombus;whiteSpace=wrap;html=1;" vertex="1" parent="1">
          <mxGeometry x="1020.5" y="400" width="80" height="40" as="geometry" />
        </mxCell>
        <mxCell id="c132NuHwo5M8e_iF8PjM-215" value="1" style="edgeLabel;html=1;align=center;verticalAlign=middle;resizable=0;points=[];fontSize=20;" vertex="1" connectable="0" parent="1">
          <mxGeometry x="1240.996956521739" y="229.9999999999999" as="geometry">
            <mxPoint x="-52" y="172" as="offset" />
          </mxGeometry>
        </mxCell>
        <mxCell id="c132NuHwo5M8e_iF8PjM-216" value="N" style="edgeLabel;html=1;align=center;verticalAlign=middle;resizable=0;points=[];fontSize=20;" vertex="1" connectable="0" parent="1">
          <mxGeometry x="935.9969565217391" y="403.9999999999999" as="geometry" />
        </mxCell>
        <mxCell id="c132NuHwo5M8e_iF8PjM-217" value="" style="endArrow=none;html=1;rounded=0;entryX=0;entryY=0.5;entryDx=0;entryDy=0;exitX=1;exitY=0.5;exitDx=0;exitDy=0;" edge="1" parent="1" source="c132NuHwo5M8e_iF8PjM-47" target="c132NuHwo5M8e_iF8PjM-211">
          <mxGeometry width="50" height="50" relative="1" as="geometry">
            <mxPoint x="740" y="110" as="sourcePoint" />
            <mxPoint x="1120" y="110" as="targetPoint" />
          </mxGeometry>
        </mxCell>
        <mxCell id="c132NuHwo5M8e_iF8PjM-211" value="Contém" style="rhombus;whiteSpace=wrap;html=1;" vertex="1" parent="1">
          <mxGeometry x="890" y="90" width="80" height="40" as="geometry" />
        </mxCell>
      </root>
    </mxGraphModel>
  </diagram>
</mxfile>
